<svg xmlns="http://www.w3.org/2000/svg" width="128" height="128" viewBox="0 0 128 128">
  <path fill="#1FAAD5" fill-rule="evenodd" d="M26,95.5 C26,94.1223229 27.1216365,93 28.5,93 C29.8783635,93 31,94.1223229 31,95.5 C31,96.8776771 29.8783635,98 28.5,98 C27.1216365,98 26,96.8776771 26,95.5 Z M127.999284,88.5056294 L128,121.729587 C127.999284,125.187151 125.183652,128 121.724754,128 L6.27166871,128 C2.81348561,128 0,125.187151 0,121.729587 L0,6.27112845 C0,2.81356425 2.81348561,0 6.27166871,0 L121.725469,0.000715555506 C125.185799,0.000715555506 127.999284,2.8142798 127.999284,6.27255956 L127.999284,68.7219508 C127.995707,70.5738084 127.001828,71.6957995 126.992526,71.7072484 L105.598014,94.964949 C105.268868,95.2411534 104.849564,95.3928512 104.418096,95.3928512 C104.01525,95.3928512 103.631723,95.2633356 103.311163,95.0193312 C102.922627,94.7238068 102.670043,94.2944735 102.604929,93.8093268 C102.5391,93.3248957 102.66575,92.8433269 102.962697,92.4526336 L117.707737,73.0746749 C117.910949,72.7770038 117.970339,72.4027683 117.87231,72.0499994 C117.744945,71.5898973 117.373582,71.2500084 116.888449,71.1591328 L116.786843,71.1448217 C116.180785,71.0725506 115.564708,71.0360573 114.952926,71.0360573 C110.832157,71.0360573 106.838753,72.7340705 103.996646,75.6971859 L94.33477,85.7643363 C93.992744,86.0548518 93.578449,86.2086962 93.1383946,86.2086962 C92.7348326,86.2086962 92.3527366,86.0791807 92.0307457,85.8344607 C91.2279148,85.2226607 91.0719281,84.0727631 91.6829954,83.2670476 L101.692622,70.1101285 C101.919446,69.7995774 101.988138,69.4124618 101.886532,69.0446663 C101.762029,68.6003063 101.338432,68.1495064 100.779598,68.145213 L100.617887,68.1373419 C100.106995,68.113013 99.5910938,68.1008486 99.0830636,68.1008486 C92.8557581,68.1008486 83.7999407,69.7981463 76.0070436,77.8867857 L75.7022254,78.1451012 C75.3788034,78.3705012 74.9931297,78.4878523 74.5867056,78.4878523 C73.4990916,78.4878523 72.6132586,77.6034257 72.6132586,76.5164969 C72.6132586,76.260328 72.6705015,76.0070214 72.7878493,75.7408347 C75.1691515,70.1852618 80.7646391,62.9438401 93.8904224,59.9885958 C95.1719465,59.7009425 96.4420221,59.3803737 97.6655878,59.036907 C105.803373,56.7643027 112.037118,54.2069073 115.696367,51.6394942 C116.250191,51.2402142 116.58864,50.6420098 116.64946,49.9464899 C116.786843,47.5143167 116.660909,45.0735569 116.271658,42.6735837 C116.050557,41.6854015 115.185475,40.9948905 114.166552,40.9948905 C113.911821,40.9948905 113.656375,41.0421171 113.4088,41.1351394 L103.157323,44.8939524 C102.248593,45.145828 101.345587,44.6893036 100.990681,43.8778636 C100.630051,43.0535437 100.936301,42.0768104 101.701208,41.6016816 L112.305444,36.1627442 C113.038868,35.7913708 113.494664,35.0507709 113.494664,34.2300287 C113.494664,33.910891 113.437421,33.6361177 113.311487,33.3584821 C111.783103,30.217909 109.779604,27.3535403 107.349645,24.8369316 C106.945368,24.4405139 106.411578,24.222985 105.84559,24.222985 C105.215918,24.222985 104.64349,24.4777227 104.230626,24.9435494 L95.8531363,34.6758198 C95.5018084,35.0221487 95.0417191,35.213202 94.5580171,35.213202 C94.1608949,35.213202 93.781661,35.0858331 93.4653944,34.8446909 C92.7498588,34.3001532 92.541638,33.2998066 92.9781147,32.5112644 L100.113435,21.8108474 C100.357432,21.4430518 100.471918,21.0623763 100.471918,20.613723 C100.471918,19.8402075 100.073365,19.1454031 99.4007614,18.7525631 C96.3482869,17.0667144 93.0725654,15.87603 89.659461,15.2134256 C89.5249403,15.1890967 89.4011527,15.1769323 89.2795116,15.1769323 C88.2305366,15.1769323 87.3346861,15.9268344 87.1536557,16.9522255 L84.7458787,28.7109491 C84.4940102,29.5746246 83.6353676,30.1463535 82.7416637,30.0211312 C81.8551152,29.8944779 81.185374,29.121678 81.1796497,28.220078 L82.0654827,17.0981988 L82.0676293,17.0781633 C82.071207,17.0287899 82.0733536,16.9865722 82.0733536,16.9450699 C82.0733536,15.7529545 81.103803,14.7819456 79.9102897,14.7819456 C79.8809528,14.7819456 79.854478,14.7840923 79.8215633,14.7869545 L79.7721914,14.7898168 C77.4989351,15.0295278 75.2328341,15.5068034 73.0404333,16.2094789 C72.3721232,16.4212833 71.8118589,16.9393455 71.5456797,17.6019499 C69.9221296,21.8666607 69.0005199,28.8376024 68.9497169,37.2324996 C68.9447081,38.6235395 68.9733295,39.9451706 69.0362967,41.2746727 C69.6702611,54.2233651 64.4289635,61.4526224 59.9210899,65.2357644 C59.5461492,65.5498932 59.0989396,65.7223421 58.6617474,65.7223421 C57.5734179,65.7223421 56.6883004,64.8379155 56.6883004,63.7524178 C56.6883004,63.5398978 56.7233617,63.3273778 56.7927686,63.1220134 L56.9437466,62.781409 C63.0257984,52.0852853 61.1382157,42.0016771 59.471018,36.9412685 L59.4273704,36.8110374 C59.2620816,36.2285753 58.705395,35.9645353 58.2581853,35.9645353 C57.8768049,35.9645353 57.5211838,36.1362686 57.283626,36.4353708 L47.2833017,49.6008766 C46.934836,50.0609787 46.4024775,50.3257343 45.8243249,50.3257343 C45.4221939,50.3257343 45.0400979,50.1962187 44.718107,49.9522143 C44.0383482,49.4377299 43.8043681,48.5060766 44.1599893,47.7318456 L51.2824297,35.7112286 C53.7038018,31.6311311 54.0644317,26.5685759 52.2448249,22.1650473 L52.1961685,22.0527051 C51.9872322,21.6283807 51.5622041,21.3643407 51.0849419,21.3643407 C50.7178722,21.3643407 50.371553,21.5260563 50.1254088,21.8180029 L35.4161454,41.1909527 C35.0662485,41.6510549 34.5338901,41.9158104 33.9557374,41.9158104 C33.5536065,41.9158104 33.1700794,41.7862949 32.8495195,41.5415749 C32.1676142,41.0235127 31.9350652,40.0847039 32.2899708,39.3240684 L43.7020465,20.948603 C46.3996154,16.4420344 46.5749216,10.9472837 44.1714378,6.2510929 L44.114195,6.13946624 C43.8952411,5.75592849 43.4830927,5.51836406 43.0387451,5.51836406 C42.6752531,5.51836406 42.330365,5.67721738 42.0820742,5.96844847 L15.9764768,40.3494594 C12.353005,45.1222146 10.8045861,51.0205387 11.6174345,56.9596494 C12.4302828,62.8980445 15.5049389,68.164533 20.2768452,71.7909683 C24.2122904,74.777697 28.899048,76.356928 33.8319498,76.356928 C41.5303963,76.356928 45.9803116,74.1852171 45.9803116,74.1852171 C45.9803116,74.1852171 46.411064,73.9719815 46.8182037,73.9719815 C47.7605639,73.9719815 48.5247559,74.7369104 48.5247559,75.6785814 C48.5247559,75.9233014 48.3809332,76.3662303 48.3809332,76.3662303 C44.3954004,86.0863362 37.3523845,86.733914 37.3523845,86.733914 C36.7713696,86.733914 36.2991162,86.2630785 36.2991162,85.6834785 C36.2991162,85.5403674 36.3284532,85.4008341 36.3828339,85.2756119 L38.2439417,81.313581 L37.7874301,81.3214521 C31.4985885,81.4137588 26.8912554,84.3461053 24.1478922,86.8040384 C21.5132905,89.164656 20.3405278,91.0587315 19.5391281,92.2980736 C18.3169934,94.1635268 17.0605131,94.7738956 14.7665062,96.1742378 C12.4360071,97.595331 10.1849324,99.1953131 9.4636726,101.968091 L9.34060049,102.542682 L9.86795016,102.285082 C10.6235557,101.917286 12.6685561,101.061482 15.315322,101.061482 C17.6350881,101.061482 19.8339287,101.72194 21.8531699,103.019957 C26.1771509,105.807762 33.1972698,109.127224 42.0835052,109.127224 C50.391588,109.127224 58.4492333,106.239242 66.0331941,100.545566 L66.1591284,100.46614 C66.453929,100.285104 66.7816443,100.197806 67.1601626,100.197806 C68.0445644,100.197806 68.8252137,100.783846 69.0613404,101.623193 L69.1421959,101.912993 L69.1464891,101.911562 C70.2405429,107.217406 73.2157395,111.944366 77.5311342,115.22805 C81.4708727,118.223365 86.1633545,119.809752 91.1026961,119.809752 C92.1123167,119.809752 93.1341014,119.740343 94.1379977,119.602956 C100.076227,118.798672 105.34543,115.728223 108.974626,110.95833 L126.473763,87.9603761 C126.639767,87.7614517 126.881618,87.6483939 127.137064,87.6483939 C127.611464,87.6483939 127.997853,88.0319317 127.999284,88.5056294 Z"/>
</svg>
